<svg id="Layer_1" data-name="Layer 1" xmlns="http://www.w3.org/2000/svg" viewBox="0 0 814.32 533.63"><defs><style>.cls-1{fill:#fff;}</style></defs><title>ilustracija2Artboard 1 copy</title><path class="cls-1" d="M245.33,470.16a16.33,16.33,0,0,0,16.33-16.34V311.65a16.34,16.34,0,0,0-32.67,0V453.82A16.33,16.33,0,0,0,245.33,470.16Z"/><path class="cls-1" d="M406.52,470.16a16.33,16.33,0,0,0,16.33-16.34V311.65a16.34,16.34,0,0,0-32.67,0V453.82A16.34,16.34,0,0,0,406.52,470.16Z"/><path class="cls-1" d="M567.71,470.16a16.34,16.34,0,0,0,16.34-16.34V311.65a16.34,16.34,0,0,0-32.68,0V453.82A16.34,16.34,0,0,0,567.71,470.16Z"/><path class="cls-1" d="M778,175.28H631.26L615.18,107.4C604.83,63.73,578.05,35.52,547,35.52H530.9A37.25,37.25,0,0,0,493.74,0H321.48a37.25,37.25,0,0,0-37.17,35.52H268.22c-31.06,0-57.83,28.21-68.19,71.88L184,175.28H37.22A37.26,37.26,0,0,0,0,212.49v29.28A37.27,37.27,0,0,0,37.22,279H67.7l36,183.59c0,.2.08.41.13.61,9.72,41.43,51.08,71.5,98.33,71.5h411c47.25,0,88.61-30.07,98.33-71.5.05-.2.09-.41.14-.61l36-183.59H778a37.26,37.26,0,0,0,37.21-37.22V212.49A37.26,37.26,0,0,0,778,175.28Zm4.54,66.49a4.55,4.55,0,0,1-4.54,4.54H37.22a4.56,4.56,0,0,1-4.55-4.54V212.49A4.56,4.56,0,0,1,37.22,208H778a4.56,4.56,0,0,1,4.54,4.54ZM316.94,66.48V37.22a4.52,4.52,0,0,1,4.54-4.55H493.74a4.55,4.55,0,0,1,4.54,4.55V66.48a4.25,4.25,0,0,1-.35,1.71A4.51,4.51,0,0,1,493.74,71H321.48a4.51,4.51,0,0,1-4.2-2.83A4.25,4.25,0,0,1,316.94,66.48ZM231.84,115c6.52-27.53,21.48-46.76,36.38-46.76h16.09a37.24,37.24,0,0,0,37.17,35.5H493.74a37.24,37.24,0,0,0,37.16-35.5H547c14.9,0,29.87,19.23,36.39,46.76l14.31,60.33H217.53ZM679.55,456c-6.42,26.7-34.32,46-66.46,46h-411c-32.13,0-60-19.34-66.46-46L101,279H714.2Z"/></svg>