<svg id="Layer_1" data-name="Layer 1" xmlns="http://www.w3.org/2000/svg" viewBox="0 0 52.67 958.51"><defs><style>.cls-1{fill:#fff;}</style></defs><title>agdArtboard 1 copy 4</title><path class="cls-1" d="M25.14,50.27A25.14,25.14,0,1,1,50.27,25.14,25.16,25.16,0,0,1,25.14,50.27ZM25.14,7A18.14,18.14,0,1,0,43.27,25.14,18.16,18.16,0,0,0,25.14,7Z"/><path class="cls-1" d="M25.14,958.42a25.14,25.14,0,1,1,25.13-25.14A25.17,25.17,0,0,1,25.14,958.42Zm0-43.27a18.14,18.14,0,1,0,18.13,18.13A18.16,18.16,0,0,0,25.14,915.15Z"/><rect class="cls-1" x="21.64" y="46.77" width="7" height="864.88"/></svg>