<svg id="Layer_1" data-name="Layer 1" xmlns="http://www.w3.org/2000/svg" viewBox="0 0 534.85 534.06"><defs><style>.cls-1{fill:#161616;}</style></defs><title>ilustracija2Artboard 1 copy 3</title><path class="cls-1" d="M521.35,442.15,393.75,314.54a43.24,43.24,0,0,0-53.14-6.27,24.74,24.74,0,0,1-6.12-29.07s0,0,0,0c1-1.62,2.05-3.24,3-4.89A181.51,181.51,0,0,0,53.16,53.16,181.52,181.52,0,0,0,278,335.24q1.86-1.17,3.67-2.38a24.79,24.79,0,0,1,29,4.31,43.21,43.21,0,0,0,3.91,56.57l127.6,127.61a43.23,43.23,0,0,0,61.07,0l18.13-18.13a43.18,43.18,0,0,0,0-61.07ZM334.05,181.48A152.57,152.57,0,1,1,181.48,28.91,152.57,152.57,0,0,1,334.05,181.48ZM501,482.89,482.89,501a14.45,14.45,0,0,1-20.4,0L334.88,373.41a14.44,14.44,0,0,1,0-20.41L353,334.88a14.44,14.44,0,0,1,20.4,0L501,462.48A14.46,14.46,0,0,1,501,482.89Z"/></svg>