<svg id="Layer_1" data-name="Layer 1" xmlns="http://www.w3.org/2000/svg" viewBox="0 0 86.21 79.62"><defs><style>.cls-1{fill:#fff;}.cls-2{fill:#cc4c6e;}.cls-3{fill:#f3b541;}.cls-4{fill:#4cb3aa;}.cls-5{fill:#842c68;}</style></defs><title>khggvArtboard 1</title><path class="cls-1" d="M2.65,70.67a.41.41,0,0,1,.45-.4h.58a.44.44,0,0,1,.48.34l2,4.63c.21.51.45,1.24.45,1.24h0s.24-.73.44-1.24l2-4.63a.45.45,0,0,1,.48-.34h.59a.4.4,0,0,1,.44.4L11.27,79a.38.38,0,0,1-.42.45h-.42a.41.41,0,0,1-.44-.42l-.42-5.38a13.36,13.36,0,0,1,0-1.36h0s-.29.85-.49,1.36l-1.7,3.8a.47.47,0,0,1-.49.34H6.41a.48.48,0,0,1-.5-.34l-1.69-3.8c-.2-.5-.5-1.38-.5-1.38h0s0,.82,0,1.38l-.42,5.38a.4.4,0,0,1-.43.42H2.39A.37.37,0,0,1,2,79Z"/><path class="cls-1" d="M15.39,70.62a.45.45,0,0,1,.48-.35h.62a.46.46,0,0,1,.49.35L20,79c.1.3,0,.5-.35.5h-.44a.47.47,0,0,1-.49-.36l-.82-2.29H14.44l-.81,2.29a.46.46,0,0,1-.47.36h-.44c-.33,0-.46-.2-.36-.5Zm2.17,5.13-1-2.92c-.16-.47-.36-1.3-.36-1.3h0s-.21.83-.37,1.3l-1,2.92Z"/><path class="cls-1" d="M22.71,75.57l-2.79-4.8c-.17-.28,0-.5.3-.5h.52a.5.5,0,0,1,.5.3l1.55,2.72c.27.52.56,1.16.56,1.16h0s.27-.64.56-1.16l1.53-2.72a.51.51,0,0,1,.5-.3h.52c.34,0,.47.22.3.5L24,75.57V79a.39.39,0,0,1-.43.43h-.43a.39.39,0,0,1-.43-.43Z"/><path class="cls-1" d="M28.22,70.7a.38.38,0,0,1,.43-.43h.5a.53.53,0,0,1,.52.28l3.92,5.7c.33.49.76,1.33.76,1.33h0s-.08-.82-.08-1.33V70.7a.38.38,0,0,1,.43-.43h.41a.38.38,0,0,1,.43.43V79a.38.38,0,0,1-.43.43h-.49a.52.52,0,0,1-.51-.29L30.21,73.5c-.33-.51-.76-1.34-.76-1.34h0s.08.82.08,1.34V79a.38.38,0,0,1-.43.43h-.42a.39.39,0,0,1-.43-.43Z"/><path class="cls-1" d="M42.07,70.11a4.59,4.59,0,0,1,4.71,4.69,4.72,4.72,0,1,1-9.44,0A4.6,4.6,0,0,1,42.07,70.11Zm0,8.33a3.43,3.43,0,0,0,3.38-3.64,3.39,3.39,0,1,0-6.78,0A3.44,3.44,0,0,0,42.07,78.44Z"/><path class="cls-1" d="M52.69,70.11a4.6,4.6,0,0,1,4.72,4.69,4.73,4.73,0,1,1-9.45,0A4.6,4.6,0,0,1,52.69,70.11Zm0,8.33a3.44,3.44,0,0,0,3.39-3.64,3.4,3.4,0,1,0-6.79,0A3.44,3.44,0,0,0,52.69,78.44Z"/><path class="cls-1" d="M60.67,71.39H57.93A.39.39,0,0,1,57.5,71V70.7a.38.38,0,0,1,.43-.43h6.75a.38.38,0,0,1,.42.43V71a.39.39,0,0,1-.42.43H61.94V79a.39.39,0,0,1-.43.43h-.43a.38.38,0,0,1-.41-.43Z"/><path class="cls-1" d="M66.35,70.7a.38.38,0,0,1,.43-.43h.41a.38.38,0,0,1,.44.43v3.62h4.78V70.7a.38.38,0,0,1,.43-.43h.43c.27,0,.41.14.41.43V79a.38.38,0,0,1-.41.43h-.43a.39.39,0,0,1-.43-.43V75.43H67.63V79a.39.39,0,0,1-.44.43h-.41a.38.38,0,0,1-.43-.43Z"/><rect class="cls-2" x="21.57" y="-0.28" width="18" height="59.75" rx="9" ry="9" transform="translate(-4.53 5.54) rotate(-9.64)"/><rect class="cls-2" x="46.65" y="-0.28" width="18" height="59.75" rx="9" ry="9" transform="translate(-4.17 9.74) rotate(-9.64)"/><rect class="cls-3" x="9.07" y="-1.91" width="18" height="63.01" rx="9" ry="9" transform="translate(13.47 -4.78) rotate(23.77)"/><rect class="cls-4" x="34.08" y="-1.91" width="18" height="63.01" rx="9" ry="9" transform="translate(15.59 -14.86) rotate(23.77)"/><rect class="cls-5" x="59.13" y="-1.91" width="18" height="63.01" rx="9" ry="9" transform="translate(17.71 -24.96) rotate(23.77)"/></svg>